<svg width="30.000000" height="30.000000" viewBox="0 0 30 30" fill="none" xmlns="http://www.w3.org/2000/svg" xmlns:xlink="http://www.w3.org/1999/xlink">
	<desc>
			Created with Pixso.
	</desc>
	<defs>
		<clipPath id="clip89_4015">
			<rect id="Icon" width="30.000000" height="30.000000" fill="white" fill-opacity="0"/>
		</clipPath>
	</defs>
	<rect id="Icon" width="30.000000" height="30.000000" fill="#000000" fill-opacity="0"/>
	<g clip-path="url(#clip89_4015)">
		<path id="Fill-1" d="M26.78 3.22C26.15 2.58 25.23 2.34 24.37 2.59L4.25 8.4C3.34 8.66 2.7 9.38 2.53 10.29C2.35 11.23 2.97 12.41 3.78 12.91L10.07 16.75C10.71 17.14 11.54 17.04 12.08 16.51L19.28 9.31C19.64 8.93 20.24 8.93 20.6 9.31C20.97 9.67 20.97 10.26 20.6 10.63L13.39 17.83C12.86 18.37 12.76 19.2 13.15 19.84L16.99 26.16C17.44 26.9 18.22 27.33 19.07 27.33C19.17 27.33 19.28 27.33 19.38 27.32C20.35 27.19 21.13 26.53 21.42 25.59L27.38 5.63C27.64 4.78 27.4 3.86 26.78 3.22Z" fill="#FFFFFF" fill-opacity="1.000000" fill-rule="nonzero"/>
		<g opacity="0.400000">
			<path id="Combined-Shape" d="M11.81 23.92C12.17 24.29 12.17 24.88 11.81 25.25L10.1 26.96C9.92 27.14 9.68 27.23 9.44 27.23C9.2 27.23 8.96 27.14 8.78 26.96C8.41 26.59 8.41 26 8.78 25.63L10.48 23.92C10.85 23.56 11.44 23.56 11.81 23.92ZM10.83 19.19C11.19 19.55 11.19 20.15 10.83 20.51L9.12 22.22C8.94 22.4 8.7 22.5 8.46 22.5C8.22 22.5 7.98 22.4 7.8 22.22C7.43 21.85 7.43 21.26 7.8 20.9L9.5 19.19C9.87 18.82 10.46 18.82 10.83 19.19ZM6.13 17.7C6.49 18.06 6.49 18.66 6.13 19.02L4.42 20.73C4.24 20.91 4 21.01 3.76 21.01C3.52 21.01 3.28 20.91 3.1 20.73C2.73 20.36 2.73 19.77 3.1 19.4L4.8 17.7C5.17 17.33 5.76 17.33 6.13 17.7Z" fill="#FFFFFF" fill-opacity="1.000000" fill-rule="nonzero"/>
		</g>
	</g>
</svg>
