<svg width="28.000000" height="28.000000" viewBox="0 0 28 28" fill="none" xmlns="http://www.w3.org/2000/svg" xmlns:xlink="http://www.w3.org/1999/xlink">
	<desc>
			Created with Pixso.
	</desc>
	<defs>
		<clipPath id="clip139_7820">
			<rect id="Icon" width="28.000000" height="28.000000" fill="white" fill-opacity="0"/>
		</clipPath>
	</defs>
	<g clip-path="url(#clip139_7820)">
		<path id="Vector (Stroke)" d="M3.5 7.87C3.5 7.39 3.89 7 4.37 7L23.62 7C24.1 7 24.5 7.39 24.5 7.87C24.5 8.35 24.1 8.75 23.62 8.75L4.37 8.75C3.89 8.75 3.5 8.35 3.5 7.87ZM3.5 14C3.5 13.51 3.89 13.12 4.37 13.12L23.62 13.12C24.1 13.12 24.5 13.51 24.5 14C24.5 14.48 24.1 14.87 23.62 14.87L4.37 14.87C3.89 14.87 3.5 14.48 3.5 14ZM13.12 20.12C13.12 19.64 13.51 19.25 14 19.25L23.62 19.25C24.1 19.25 24.5 19.64 24.5 20.12C24.5 20.6 24.1 21 23.62 21L14 21C13.51 21 13.12 20.6 13.12 20.12Z" fill="#FFFFFF" fill-opacity="1.000000" fill-rule="evenodd"/>
	</g>
</svg>
